<svg width="22" height="22" viewBox="0 0 22 22" fill="none" xmlns="http://www.w3.org/2000/svg">
<g clip-path="url(#clip0_2_22)">
<path fill-rule="evenodd" clip-rule="evenodd" d="M0.916657 2.60149C0.916657 2.15465 1.09417 1.7261 1.41013 1.41014C1.7261 1.09417 2.15464 0.916659 2.60149 0.916659H19.3967C19.6181 0.916297 19.8374 0.959616 20.0421 1.04414C20.2468 1.12866 20.4328 1.25272 20.5895 1.40922C20.7461 1.56572 20.8704 1.75158 20.9551 1.95617C21.0399 2.16076 21.0834 2.38005 21.0833 2.60149V19.3967C21.0836 19.6181 21.0401 19.8375 20.9555 20.0422C20.8709 20.2469 20.7467 20.4329 20.5902 20.5895C20.4336 20.7462 20.2477 20.8704 20.043 20.9552C19.8384 21.0399 19.6191 21.0834 19.3976 21.0833H2.60149C2.38016 21.0833 2.16099 21.0397 1.95652 20.955C1.75205 20.8703 1.56627 20.7461 1.40981 20.5895C1.25335 20.433 1.12926 20.2471 1.04464 20.0426C0.960027 19.8381 0.916536 19.6189 0.916657 19.3976V2.60149ZM8.89899 8.60566H11.6297V9.97699C12.0239 9.18866 13.0322 8.47916 14.5475 8.47916C17.4524 8.47916 18.1408 10.0494 18.1408 12.9305V18.2673H15.2011V13.5868C15.2011 11.946 14.8069 11.0202 13.8059 11.0202C12.4172 11.0202 11.8397 12.0184 11.8397 13.5868V18.2673H8.89899V8.60566ZM3.85732 18.1417H6.79799V8.47916H3.85732V18.1408V18.1417ZM7.21874 5.32766C7.22429 5.57944 7.17948 5.8298 7.08696 6.06403C6.99444 6.29826 6.85606 6.51166 6.67995 6.69169C6.50384 6.87172 6.29355 7.01476 6.06141 7.11242C5.82927 7.21007 5.57996 7.26038 5.32812 7.26038C5.07627 7.26038 4.82696 7.21007 4.59482 7.11242C4.36268 7.01476 4.15239 6.87172 3.97628 6.69169C3.80017 6.51166 3.66179 6.29826 3.56927 6.06403C3.47675 5.8298 3.43195 5.57944 3.43749 5.32766C3.44837 4.83344 3.65234 4.36313 4.00572 4.01745C4.35909 3.67177 4.83378 3.47821 5.32812 3.47821C5.82245 3.47821 6.29714 3.67177 6.65051 4.01745C7.00389 4.36313 7.20786 4.83344 7.21874 5.32766Z" fill="#61DBFB"/>
</g>
<defs>
<clipPath id="clip0_2_22">
<rect width="22" height="22" fill="white"/>
</clipPath>
</defs>
</svg>
