<svg width="218" height="52" viewBox="0 0 218 52" fill="none" xmlns="http://www.w3.org/2000/svg">
<path d="M6.27344 23.3447V28.2666H8.0752C8.79785 28.2666 9.31055 28.4033 9.61328 28.6768C9.92578 28.96 10.082 29.3262 10.082 29.7754C10.082 30.2148 9.92578 30.5713 9.61328 30.8447C9.31055 31.1279 8.79785 31.2695 8.0752 31.2695H2.75781C2.03516 31.2695 1.51758 31.1279 1.20508 30.8447C0.902344 30.5713 0.750977 30.2148 0.750977 29.7754C0.750977 29.3262 0.907227 28.96 1.21973 28.6768C1.53223 28.4033 2.04492 28.2666 2.75781 28.2666H3.27051V14.7021H2.75781C2.03516 14.7021 1.51758 14.5654 1.20508 14.292C0.902344 14.0088 0.750977 13.6426 0.750977 13.1934C0.750977 12.7539 0.902344 12.3975 1.20508 12.124C1.51758 11.8408 2.03516 11.6992 2.75781 11.6992H6.27344V12.7246C6.97656 12.2461 7.7041 11.8896 8.45605 11.6553C9.20801 11.4209 9.97949 11.3037 10.7705 11.3037C12.8213 11.3037 14.5693 12.002 16.0146 13.3984C17.46 14.7852 18.1826 16.377 18.1826 18.1738C18.1826 20.1562 17.3281 21.792 15.6191 23.0811C14.1934 24.1553 12.5869 24.6924 10.7998 24.6924C10.0283 24.6924 9.2666 24.5801 8.51465 24.3555C7.7627 24.1309 7.01562 23.7939 6.27344 23.3447ZM15.1797 18.1885C15.1797 17.7686 15.0137 17.2363 14.6816 16.5918C14.3496 15.9375 13.8369 15.3955 13.1436 14.9658C12.46 14.5264 11.6543 14.3066 10.7266 14.3066C9.23242 14.3066 8.0459 14.8682 7.16699 15.9912C6.57129 16.7627 6.27344 17.5049 6.27344 18.2178C6.27344 19.0186 6.69824 19.7998 7.54785 20.5615C8.40723 21.3135 9.4668 21.6895 10.7266 21.6895C11.9961 21.6895 13.0557 21.3135 13.9053 20.5615C14.7549 19.8096 15.1797 19.0186 15.1797 18.1885ZM24.9209 6.00098V12.4023C25.5459 12.0312 26.1758 11.7578 26.8105 11.582C27.4551 11.3965 28.1045 11.3037 28.7588 11.3037C29.7939 11.3037 30.7168 11.4795 31.5273 11.8311C32.3379 12.1826 33.0068 12.7393 33.5342 13.501C34.0713 14.2529 34.3398 15.2051 34.3398 16.3574V21.9971C35.1016 21.9971 35.5996 22.0703 35.834 22.2168C36.3027 22.5195 36.5371 22.9492 36.5371 23.5059C36.5371 23.9453 36.3857 24.3066 36.083 24.5898C35.7803 24.8633 35.2676 25 34.5449 25H31.1172C30.4043 25 29.8916 24.8633 29.5791 24.5898C29.2764 24.3066 29.125 23.9404 29.125 23.4912C29.125 22.9443 29.3594 22.5195 29.8281 22.2168C30.0723 22.0605 30.5703 21.9873 31.3223 21.9971V16.5625C31.3223 15.791 31.1465 15.249 30.7949 14.9365C30.3359 14.5166 29.6572 14.3066 28.7588 14.3066C28.0947 14.3066 27.5039 14.4385 26.9863 14.7021C26.4785 14.9561 25.79 15.5127 24.9209 16.3721V21.9971C25.6924 21.9971 26.1904 22.0703 26.415 22.2168C26.8936 22.5195 27.1328 22.9492 27.1328 23.5059C27.1328 23.9453 26.9766 24.3066 26.6641 24.5898C26.3613 24.8633 25.8486 25 25.126 25H21.7129C20.9902 25 20.4727 24.8633 20.1602 24.5898C19.8574 24.3066 19.7061 23.9404 19.7061 23.4912C19.7061 22.9443 19.9453 22.5195 20.4238 22.2168C20.6582 22.0605 21.1562 21.9873 21.918 21.9971V9.00391H21.4053C20.6826 9.00391 20.165 8.86719 19.8525 8.59375C19.5498 8.31055 19.3984 7.94434 19.3984 7.49512C19.3984 7.05566 19.5498 6.69922 19.8525 6.42578C20.165 6.14258 20.6826 6.00098 21.4053 6.00098H24.9209ZM48.7393 25V24.2969C47.9873 24.6973 47.1572 24.9951 46.249 25.1904C45.3408 25.3955 44.5156 25.498 43.7734 25.498C42.1621 25.498 40.8535 25.0732 39.8477 24.2236C38.8418 23.3643 38.3389 22.417 38.3389 21.3818C38.3389 20.1221 38.9785 18.9551 40.2578 17.8809C41.5469 16.7969 43.3242 16.2549 45.5898 16.2549C46.498 16.2549 47.5479 16.3525 48.7393 16.5479V15.8301C48.7393 15.3809 48.5439 15.0146 48.1533 14.7314C47.7725 14.4482 47.04 14.3066 45.9561 14.3066C45.0674 14.3066 43.915 14.4824 42.499 14.834C41.9717 14.9609 41.5615 15.0244 41.2686 15.0244C40.8682 15.0244 40.5264 14.8828 40.2432 14.5996C39.9697 14.3066 39.833 13.9355 39.833 13.4863C39.833 13.2324 39.8818 13.0127 39.9795 12.8271C40.0771 12.6416 40.2139 12.4951 40.3896 12.3877C40.5654 12.2705 40.9316 12.1338 41.4883 11.9775C42.2305 11.7725 42.9873 11.6113 43.7588 11.4941C44.5303 11.3672 45.2285 11.3037 45.8535 11.3037C47.7188 11.3037 49.1641 11.709 50.1895 12.5195C51.2246 13.3203 51.7422 14.4189 51.7422 15.8154V21.9971H52.2549C52.9775 21.9971 53.4902 22.1387 53.793 22.4219C54.1055 22.6953 54.2617 23.0566 54.2617 23.5059C54.2617 23.9453 54.1055 24.3066 53.793 24.5898C53.4902 24.8633 52.9775 25 52.2549 25H48.7393ZM48.7393 19.624C47.5381 19.3896 46.4297 19.2725 45.4141 19.2725C44.1934 19.2725 43.1436 19.5703 42.2646 20.166C41.7178 20.5469 41.4443 20.9326 41.4443 21.3232C41.4443 21.6064 41.5762 21.8359 41.8398 22.0117C42.3281 22.334 42.9971 22.4951 43.8467 22.4951C44.5693 22.4951 45.3848 22.3535 46.293 22.0703C47.2109 21.7871 48.0264 21.4014 48.7393 20.9131V19.624ZM61.0146 11.6992V12.71C61.5615 12.2412 62.1621 11.8896 62.8164 11.6553C63.4805 11.4209 64.1982 11.3037 64.9697 11.3037C66.7471 11.3037 68.1533 11.8555 69.1885 12.959C70.0088 13.8379 70.4189 14.9902 70.4189 16.416V21.9971C71.0537 21.9971 71.5225 22.1387 71.8252 22.4219C72.1279 22.6953 72.2793 23.0566 72.2793 23.5059C72.2793 23.9453 72.123 24.3066 71.8105 24.5898C71.5078 24.8633 70.9951 25 70.2725 25H67.5625C66.8398 25 66.3223 24.8633 66.0098 24.5898C65.707 24.3066 65.5557 23.9404 65.5557 23.4912C65.5557 23.0518 65.707 22.6953 66.0098 22.4219C66.3125 22.1387 66.7812 21.9971 67.416 21.9971V16.3281C67.416 15.6738 67.2402 15.1953 66.8887 14.8926C66.4297 14.502 65.7412 14.3066 64.8232 14.3066C64.1299 14.3066 63.5195 14.4434 62.9922 14.7168C62.4746 14.9805 61.8154 15.5469 61.0146 16.416V21.9971C61.7861 21.9971 62.2842 22.0703 62.5088 22.2168C62.9873 22.5098 63.2266 22.9395 63.2266 23.5059C63.2266 23.9453 63.0703 24.3066 62.7578 24.5898C62.4551 24.8633 61.9424 25 61.2197 25H57.8066C57.084 25 56.5664 24.8633 56.2539 24.5898C55.9512 24.3066 55.7998 23.9404 55.7998 23.4912C55.7998 22.9443 56.0342 22.5195 56.5029 22.2168C56.7373 22.0703 57.2402 21.9971 58.0117 21.9971V14.7021C57.377 14.7021 56.9082 14.5605 56.6055 14.2773C56.3027 13.9941 56.1514 13.6328 56.1514 13.1934C56.1514 12.7539 56.3027 12.3975 56.6055 12.124C56.918 11.8408 57.4355 11.6992 58.1582 11.6992H61.0146ZM81.332 14.7021V20.7227C81.332 21.3672 81.4639 21.792 81.7275 21.9971C82.1377 22.3193 82.8701 22.4805 83.9248 22.4805C85.458 22.4805 86.874 22.1533 88.1729 21.499C88.6709 21.2451 89.0615 21.1182 89.3447 21.1182C89.7354 21.1182 90.0723 21.2646 90.3555 21.5576C90.6484 21.8506 90.7949 22.207 90.7949 22.627C90.7949 23.0176 90.6387 23.3545 90.3262 23.6377C89.8477 24.0967 88.9004 24.5215 87.4844 24.9121C86.0781 25.293 84.8916 25.4834 83.9248 25.4834C82.0596 25.4834 80.6582 25.083 79.7207 24.2822C78.793 23.4717 78.3291 22.4805 78.3291 21.3086V14.7021H77.2451C76.5225 14.7021 76.0049 14.5654 75.6924 14.292C75.3896 14.0088 75.2383 13.6426 75.2383 13.1934C75.2383 12.7539 75.3896 12.3975 75.6924 12.124C76.0049 11.8408 76.5225 11.6992 77.2451 11.6992H78.3291V8.98926C78.3291 8.2666 78.4658 7.75391 78.7393 7.45117C79.0225 7.13867 79.3887 6.98242 79.8379 6.98242C80.2773 6.98242 80.6338 7.13867 80.9072 7.45117C81.1904 7.75391 81.332 8.2666 81.332 8.98926V11.6992H86.8838C87.6064 11.6992 88.1191 11.8408 88.4219 12.124C88.7344 12.3975 88.8906 12.7588 88.8906 13.208C88.8906 13.6475 88.7344 14.0088 88.4219 14.292C88.1191 14.5654 87.6064 14.7021 86.8838 14.7021H81.332ZM107.89 18.5986C107.89 19.751 107.567 20.8691 106.923 21.9531C106.288 23.0273 105.336 23.8867 104.066 24.5312C102.807 25.166 101.488 25.4834 100.111 25.4834C98.7441 25.4834 97.4355 25.1709 96.1855 24.5459C94.9355 23.9111 93.9834 23.0518 93.3291 21.9678C92.6748 20.8838 92.3477 19.751 92.3477 18.5693C92.3477 17.3682 92.6797 16.1914 93.3438 15.0391C94.0078 13.877 94.96 12.9639 96.2002 12.2998C97.4502 11.6357 98.7539 11.3037 100.111 11.3037C101.479 11.3037 102.792 11.6455 104.052 12.3291C105.321 13.0029 106.278 13.916 106.923 15.0684C107.567 16.2109 107.89 17.3877 107.89 18.5986ZM104.887 18.6133C104.887 17.6465 104.54 16.7578 103.847 15.9473C102.899 14.8535 101.654 14.3066 100.111 14.3066C98.7539 14.3066 97.6211 14.7412 96.7129 15.6104C95.8047 16.4795 95.3506 17.4854 95.3506 18.6279C95.3506 19.5654 95.8096 20.4443 96.7275 21.2646C97.6455 22.0752 98.7734 22.4805 100.111 22.4805C101.459 22.4805 102.592 22.0752 103.51 21.2646C104.428 20.4443 104.887 19.5605 104.887 18.6133Z" fill="white"/>
<path d="M114.965 16.4453L124.691 21.8359C125.18 22.1094 125.502 22.3535 125.658 22.5684C125.824 22.7832 125.907 23.0566 125.907 23.3887C125.907 23.8086 125.756 24.1748 125.453 24.4873C125.15 24.79 124.799 24.9414 124.398 24.9414C124.135 24.9414 123.739 24.7949 123.212 24.502L108.725 16.4453L123.212 8.38867C123.739 8.10547 124.13 7.96387 124.384 7.96387C124.794 7.96387 125.15 8.11523 125.453 8.41797C125.756 8.7207 125.907 9.08203 125.907 9.50195C125.907 9.83398 125.824 10.1074 125.658 10.3223C125.502 10.5371 125.18 10.7812 124.691 11.0547L114.965 16.4453ZM143.017 6.00098V21.9971H143.529C144.242 21.9971 144.755 22.1387 145.067 22.4219C145.38 22.6953 145.536 23.0566 145.536 23.5059C145.536 23.9453 145.38 24.3066 145.067 24.5898C144.765 24.8633 144.252 25 143.529 25H140.014V24.2676C139.33 24.668 138.612 24.9707 137.86 25.1758C137.118 25.3809 136.347 25.4834 135.546 25.4834C133.29 25.4834 131.474 24.834 130.097 23.5352C128.72 22.2266 128.031 20.6006 128.031 18.6572C128.031 16.626 128.754 14.8926 130.199 13.457C131.645 12.0215 133.407 11.3037 135.487 11.3037C136.269 11.3037 137.035 11.4258 137.787 11.6699C138.539 11.9043 139.281 12.2607 140.014 12.7393V9.00391H139.501C138.778 9.00391 138.261 8.86719 137.948 8.59375C137.646 8.31055 137.494 7.94922 137.494 7.50977C137.494 7.06055 137.646 6.69922 137.948 6.42578C138.261 6.14258 138.778 6.00098 139.501 6.00098H143.017ZM140.014 18.7451C140.014 17.5049 139.579 16.4551 138.71 15.5957C137.841 14.7363 136.776 14.3066 135.517 14.3066C134.267 14.3066 133.207 14.7363 132.338 15.5957C131.469 16.4551 131.034 17.4902 131.034 18.7012C131.034 19.8047 131.425 20.7129 132.206 21.4258C132.987 22.1289 134.091 22.4805 135.517 22.4805C136.933 22.4805 138.036 22.1289 138.827 21.4258C139.618 20.7129 140.014 19.8193 140.014 18.7451ZM161.679 19.873H149.359C149.672 20.6543 150.224 21.2842 151.015 21.7627C151.815 22.2412 152.895 22.4805 154.252 22.4805C155.365 22.4805 156.845 22.2412 158.69 21.7627C159.452 21.5674 159.979 21.4697 160.272 21.4697C160.673 21.4697 161.01 21.6113 161.283 21.8945C161.557 22.1777 161.693 22.5342 161.693 22.9639C161.693 23.3545 161.547 23.6865 161.254 23.96C160.863 24.3213 159.911 24.668 158.397 25C156.884 25.3223 155.429 25.4834 154.032 25.4834C151.63 25.4834 149.706 24.8047 148.261 23.4473C146.825 22.0898 146.107 20.4199 146.107 18.4375C146.107 16.3281 146.884 14.6143 148.437 13.2959C149.999 11.9678 151.796 11.3037 153.827 11.3037C155.048 11.3037 156.166 11.5186 157.182 11.9482C158.207 12.3779 158.969 12.8418 159.467 13.3398C160.17 14.0625 160.751 14.9561 161.21 16.0205C161.522 16.7627 161.679 17.6221 161.679 18.5986V19.873ZM158.354 16.8701C157.895 16.0107 157.294 15.3711 156.552 14.9512C155.81 14.5215 154.926 14.3066 153.9 14.3066C152.885 14.3066 152.006 14.5215 151.264 14.9512C150.521 15.3711 149.916 16.0107 149.447 16.8701H158.354ZM172.182 21.3525L175.419 14.7021C174.618 14.7021 174.105 14.6338 173.881 14.4971C173.393 14.1943 173.148 13.7598 173.148 13.1934C173.148 12.7539 173.3 12.3975 173.603 12.124C173.915 11.8408 174.433 11.6992 175.155 11.6992H179.271C179.994 11.6992 180.507 11.8408 180.81 12.124C181.122 12.3975 181.278 12.7588 181.278 13.208C181.278 13.6475 181.122 14.0088 180.81 14.292C180.507 14.5654 179.994 14.7021 179.271 14.7021H178.773L173.749 25H170.614L165.59 14.7021H165.165C164.442 14.7021 163.925 14.5654 163.612 14.292C163.31 14.0088 163.158 13.6426 163.158 13.1934C163.158 12.7539 163.31 12.3975 163.612 12.124C163.925 11.8408 164.442 11.6992 165.165 11.6992H169.193C169.906 11.6992 170.414 11.8408 170.717 12.124C171.029 12.3975 171.186 12.7588 171.186 13.208C171.186 13.7646 170.951 14.1895 170.482 14.4824C170.248 14.6289 169.726 14.7021 168.915 14.7021L172.182 21.3525ZM196.366 6.39648L186.742 27.1387C186.498 27.6562 186.278 27.9932 186.083 28.1494C185.829 28.3545 185.521 28.457 185.16 28.457C184.75 28.457 184.394 28.3105 184.091 28.0176C183.798 27.7246 183.651 27.3926 183.651 27.0215C183.651 26.7578 183.769 26.3721 184.003 25.8643L193.656 5.13672C193.9 4.61914 194.115 4.28223 194.301 4.12598C194.564 3.9209 194.872 3.81836 195.224 3.81836C195.634 3.81836 195.985 3.96484 196.278 4.25781C196.571 4.54102 196.718 4.86816 196.718 5.23926C196.718 5.50293 196.601 5.88867 196.366 6.39648ZM211.366 16.4453L201.64 11.0547C201.151 10.7812 200.824 10.5371 200.658 10.3223C200.502 10.1074 200.424 9.83398 200.424 9.50195C200.424 9.08203 200.575 8.7207 200.878 8.41797C201.181 8.11523 201.537 7.96387 201.947 7.96387C202.201 7.96387 202.592 8.10547 203.119 8.38867L217.606 16.4453L203.119 24.502C202.592 24.7949 202.201 24.9414 201.947 24.9414C201.537 24.9414 201.181 24.79 200.878 24.4873C200.575 24.1846 200.424 23.8184 200.424 23.3887C200.424 23.0566 200.502 22.7832 200.658 22.5684C200.824 22.3535 201.151 22.1094 201.64 21.8359L211.366 16.4453Z" fill="#FFD600"/>
<path d="M5.46582 42.5615V45.1982H7.31152C7.74512 45.1982 8.05273 45.2832 8.23438 45.4531C8.42188 45.6172 8.51562 45.834 8.51562 46.1035C8.51562 46.3672 8.42188 46.584 8.23438 46.7539C8.05273 46.918 7.74512 47 7.31152 47H3.38281C2.94922 47 2.63867 46.918 2.45117 46.7539C2.26953 46.584 2.17871 46.3643 2.17871 46.0947C2.17871 45.8311 2.27246 45.6172 2.45996 45.4531C2.64746 45.2832 2.95508 45.1982 3.38281 45.1982H3.66406V38.1494H3.38281C2.94922 38.1494 2.63867 38.0674 2.45117 37.9033C2.26953 37.7334 2.17871 37.5137 2.17871 37.2441C2.17871 36.9746 2.26953 36.7578 2.45117 36.5938C2.63867 36.4238 2.94922 36.3389 3.38281 36.3389L11.8643 36.3477V39.0986C11.8643 39.5264 11.7793 39.834 11.6094 40.0215C11.4453 40.2031 11.2285 40.2939 10.959 40.2939C10.6953 40.2939 10.4785 40.2031 10.3086 40.0215C10.1445 39.8398 10.0625 39.5322 10.0625 39.0986V38.1494H5.46582V40.7598H7.04785C7.04785 40.291 7.0918 39.9893 7.17969 39.8545C7.36133 39.5674 7.61914 39.4238 7.95312 39.4238C8.2168 39.4238 8.43066 39.5176 8.59473 39.7051C8.76465 39.8867 8.84961 40.1943 8.84961 40.6279V42.7021C8.84961 43.1357 8.76465 43.4463 8.59473 43.6338C8.43066 43.8154 8.21387 43.9062 7.94434 43.9062C7.61621 43.9062 7.36133 43.7627 7.17969 43.4756C7.0918 43.3408 7.04785 43.0361 7.04785 42.5615H5.46582ZM17.1377 39.0195V40.1445C17.8936 39.5996 18.4883 39.2363 18.9219 39.0547C19.3613 38.873 19.7715 38.7822 20.1523 38.7822C20.7383 38.7822 21.3066 38.999 21.8574 39.4326C22.2324 39.7256 22.4199 40.0244 22.4199 40.3291C22.4199 40.5869 22.3291 40.8066 22.1475 40.9883C21.9717 41.1641 21.7578 41.252 21.5059 41.252C21.2832 41.252 21.0488 41.1406 20.8027 40.918C20.5566 40.6953 20.3369 40.584 20.1436 40.584C19.8916 40.584 19.5137 40.7422 19.0098 41.0586C18.5117 41.375 17.8877 41.8496 17.1377 42.4824V45.1982H19.7041C20.1377 45.1982 20.4453 45.2832 20.627 45.4531C20.8145 45.6172 20.9082 45.834 20.9082 46.1035C20.9082 46.3672 20.8145 46.584 20.627 46.7539C20.4453 46.918 20.1377 47 19.7041 47H14.2637C13.8301 47 13.5195 46.918 13.332 46.7539C13.1504 46.584 13.0596 46.3643 13.0596 46.0947C13.0596 45.8311 13.1504 45.6172 13.332 45.4531C13.5195 45.2832 13.8301 45.1982 14.2637 45.1982H15.3359V40.8213H14.6855C14.252 40.8213 13.9414 40.7393 13.7539 40.5752C13.5723 40.4053 13.4814 40.1855 13.4814 39.916C13.4814 39.6523 13.5723 39.4385 13.7539 39.2744C13.9414 39.1045 14.252 39.0195 14.6855 39.0195H17.1377ZM33.002 43.1592C33.002 43.8506 32.8086 44.5215 32.4219 45.1719C32.041 45.8164 31.4697 46.332 30.708 46.7188C29.9521 47.0996 29.1611 47.29 28.335 47.29C27.5146 47.29 26.7295 47.1025 25.9795 46.7275C25.2295 46.3467 24.6582 45.8311 24.2656 45.1807C23.873 44.5303 23.6768 43.8506 23.6768 43.1416C23.6768 42.4209 23.876 41.7148 24.2744 41.0234C24.6729 40.3262 25.2441 39.7783 25.9883 39.3799C26.7383 38.9814 27.5205 38.7822 28.335 38.7822C29.1553 38.7822 29.9434 38.9873 30.6992 39.3975C31.4609 39.8018 32.0352 40.3496 32.4219 41.041C32.8086 41.7266 33.002 42.4326 33.002 43.1592ZM31.2002 43.168C31.2002 42.5879 30.9922 42.0547 30.5762 41.5684C30.0078 40.9121 29.2607 40.584 28.335 40.584C27.5205 40.584 26.8408 40.8447 26.2959 41.3662C25.751 41.8877 25.4785 42.4912 25.4785 43.1768C25.4785 43.7393 25.7539 44.2666 26.3047 44.7588C26.8555 45.2451 27.5322 45.4883 28.335 45.4883C29.1436 45.4883 29.8232 45.2451 30.374 44.7588C30.9248 44.2666 31.2002 43.7363 31.2002 43.168ZM37.3086 39.0195V39.626C37.6367 39.3447 37.9971 39.1338 38.3896 38.9932C38.7881 38.8525 39.2188 38.7822 39.6816 38.7822C40.748 38.7822 41.5918 39.1133 42.2129 39.7754C42.7051 40.3027 42.9512 40.9941 42.9512 41.8496V45.1982C43.332 45.1982 43.6133 45.2832 43.7949 45.4531C43.9766 45.6172 44.0674 45.834 44.0674 46.1035C44.0674 46.3672 43.9736 46.584 43.7861 46.7539C43.6045 46.918 43.2969 47 42.8633 47H41.2373C40.8037 47 40.4932 46.918 40.3057 46.7539C40.124 46.584 40.0332 46.3643 40.0332 46.0947C40.0332 45.8311 40.124 45.6172 40.3057 45.4531C40.4873 45.2832 40.7686 45.1982 41.1494 45.1982V41.7969C41.1494 41.4043 41.0439 41.1172 40.833 40.9355C40.5576 40.7012 40.1445 40.584 39.5938 40.584C39.1777 40.584 38.8115 40.666 38.4951 40.8301C38.1846 40.9883 37.7891 41.3281 37.3086 41.8496V45.1982C37.7715 45.1982 38.0703 45.2422 38.2051 45.3301C38.4922 45.5059 38.6357 45.7637 38.6357 46.1035C38.6357 46.3672 38.542 46.584 38.3545 46.7539C38.1729 46.918 37.8652 47 37.4316 47H35.3838C34.9502 47 34.6396 46.918 34.4521 46.7539C34.2705 46.584 34.1797 46.3643 34.1797 46.0947C34.1797 45.7666 34.3203 45.5117 34.6016 45.3301C34.7422 45.2422 35.0439 45.1982 35.5068 45.1982V40.8213C35.126 40.8213 34.8447 40.7363 34.6631 40.5664C34.4814 40.3965 34.3906 40.1797 34.3906 39.916C34.3906 39.6523 34.4814 39.4385 34.6631 39.2744C34.8506 39.1045 35.1611 39.0195 35.5947 39.0195H37.3086ZM49.499 40.8213V44.4336C49.499 44.8203 49.5781 45.0752 49.7363 45.1982C49.9824 45.3916 50.4219 45.4883 51.0547 45.4883C51.9746 45.4883 52.8242 45.292 53.6035 44.8994C53.9023 44.7471 54.1367 44.6709 54.3066 44.6709C54.541 44.6709 54.7432 44.7588 54.9131 44.9346C55.0889 45.1104 55.1768 45.3242 55.1768 45.5762C55.1768 45.8105 55.083 46.0127 54.8955 46.1826C54.6084 46.458 54.04 46.7129 53.1904 46.9473C52.3467 47.1758 51.6348 47.29 51.0547 47.29C49.9355 47.29 49.0947 47.0498 48.5322 46.5693C47.9756 46.083 47.6973 45.4883 47.6973 44.7852V40.8213H47.0469C46.6133 40.8213 46.3027 40.7393 46.1152 40.5752C45.9336 40.4053 45.8428 40.1855 45.8428 39.916C45.8428 39.6523 45.9336 39.4385 46.1152 39.2744C46.3027 39.1045 46.6133 39.0195 47.0469 39.0195H47.6973V37.3936C47.6973 36.96 47.7793 36.6523 47.9434 36.4707C48.1133 36.2832 48.333 36.1895 48.6025 36.1895C48.8662 36.1895 49.0801 36.2832 49.2441 36.4707C49.4141 36.6523 49.499 36.96 49.499 37.3936V39.0195H52.8301C53.2637 39.0195 53.5713 39.1045 53.7529 39.2744C53.9404 39.4385 54.0342 39.6553 54.0342 39.9248C54.0342 40.1885 53.9404 40.4053 53.7529 40.5752C53.5713 40.7393 53.2637 40.8213 52.8301 40.8213H49.499ZM64.5283 42.7109H57.0049V41.0674H64.5283V42.7109ZM69.7139 42.5527V45.1982H74.3105V44.2227C74.3105 43.7891 74.3926 43.4814 74.5566 43.2998C74.7266 43.1123 74.9463 43.0186 75.2158 43.0186C75.4795 43.0186 75.6934 43.1123 75.8574 43.2998C76.0273 43.4814 76.1123 43.7891 76.1123 44.2227V47H67.6309C67.1973 47 66.8867 46.918 66.6992 46.7539C66.5176 46.584 66.4268 46.3643 66.4268 46.0947C66.4268 45.8311 66.5205 45.6172 66.708 45.4531C66.8955 45.2832 67.2031 45.1982 67.6309 45.1982H67.9121V38.1494H67.6309C67.1973 38.1494 66.8867 38.0674 66.6992 37.9033C66.5176 37.7334 66.4268 37.5137 66.4268 37.2441C66.4268 36.9746 66.5176 36.7578 66.6992 36.5938C66.8867 36.4238 67.1973 36.3389 67.6309 36.3389L75.7168 36.3477V39.0898C75.7168 39.5176 75.6348 39.8252 75.4707 40.0127C75.3066 40.1943 75.0898 40.2852 74.8203 40.2852C74.5508 40.2852 74.3311 40.1943 74.1611 40.0127C73.9971 39.8311 73.915 39.5234 73.915 39.0898V38.1494H69.7139V40.751H71.2959C71.2959 40.2822 71.3398 39.9805 71.4277 39.8457C71.6094 39.5586 71.8672 39.415 72.2012 39.415C72.4648 39.415 72.6787 39.5088 72.8428 39.6963C73.0127 39.8779 73.0977 40.1855 73.0977 40.6191V42.6934C73.0977 43.0859 73.0508 43.3496 72.957 43.4844C72.7695 43.7598 72.5176 43.8975 72.2012 43.8975C71.8672 43.8975 71.6094 43.7539 71.4277 43.4668C71.3398 43.332 71.2959 43.0273 71.2959 42.5527H69.7139ZM80.5508 39.0195V39.626C80.8789 39.3447 81.2393 39.1338 81.6318 38.9932C82.0303 38.8525 82.4609 38.7822 82.9238 38.7822C83.9902 38.7822 84.834 39.1133 85.4551 39.7754C85.9473 40.3027 86.1934 40.9941 86.1934 41.8496V45.1982C86.5742 45.1982 86.8555 45.2832 87.0371 45.4531C87.2188 45.6172 87.3096 45.834 87.3096 46.1035C87.3096 46.3672 87.2158 46.584 87.0283 46.7539C86.8467 46.918 86.5391 47 86.1055 47H84.4795C84.0459 47 83.7354 46.918 83.5479 46.7539C83.3662 46.584 83.2754 46.3643 83.2754 46.0947C83.2754 45.8311 83.3662 45.6172 83.5479 45.4531C83.7295 45.2832 84.0107 45.1982 84.3916 45.1982V41.7969C84.3916 41.4043 84.2861 41.1172 84.0752 40.9355C83.7998 40.7012 83.3867 40.584 82.8359 40.584C82.4199 40.584 82.0537 40.666 81.7373 40.8301C81.4268 40.9883 81.0312 41.3281 80.5508 41.8496V45.1982C81.0137 45.1982 81.3125 45.2422 81.4473 45.3301C81.7344 45.5059 81.8779 45.7637 81.8779 46.1035C81.8779 46.3672 81.7842 46.584 81.5967 46.7539C81.415 46.918 81.1074 47 80.6738 47H78.626C78.1924 47 77.8818 46.918 77.6943 46.7539C77.5127 46.584 77.4219 46.3643 77.4219 46.0947C77.4219 45.7666 77.5625 45.5117 77.8438 45.3301C77.9844 45.2422 78.2861 45.1982 78.749 45.1982V40.8213C78.3682 40.8213 78.0869 40.7363 77.9053 40.5664C77.7236 40.3965 77.6328 40.1797 77.6328 39.916C77.6328 39.6523 77.7236 39.4385 77.9053 39.2744C78.0928 39.1045 78.4033 39.0195 78.8369 39.0195H80.5508ZM97.3203 35.6006V45.1982H97.6279C98.0557 45.1982 98.3633 45.2832 98.5508 45.4531C98.7383 45.6172 98.832 45.834 98.832 46.1035C98.832 46.3672 98.7383 46.584 98.5508 46.7539C98.3691 46.918 98.0615 47 97.6279 47H95.5186V46.5605C95.1084 46.8008 94.6777 46.9824 94.2266 47.1055C93.7812 47.2285 93.3184 47.29 92.8379 47.29C91.4844 47.29 90.3945 46.9004 89.5684 46.1211C88.7422 45.3359 88.3291 44.3604 88.3291 43.1943C88.3291 41.9756 88.7627 40.9355 89.6299 40.0742C90.4971 39.2129 91.5547 38.7822 92.8027 38.7822C93.2715 38.7822 93.7314 38.8555 94.1826 39.002C94.6338 39.1426 95.0791 39.3564 95.5186 39.6436V37.4023H95.2109C94.7773 37.4023 94.4668 37.3203 94.2793 37.1562C94.0977 36.9863 94.0068 36.7695 94.0068 36.5059C94.0068 36.2363 94.0977 36.0195 94.2793 35.8555C94.4668 35.6855 94.7773 35.6006 95.2109 35.6006H97.3203ZM95.5186 43.2471C95.5186 42.5029 95.2578 41.873 94.7363 41.3574C94.2148 40.8418 93.5762 40.584 92.8203 40.584C92.0703 40.584 91.4346 40.8418 90.9131 41.3574C90.3916 41.873 90.1309 42.4941 90.1309 43.2207C90.1309 43.8828 90.3652 44.4277 90.834 44.8555C91.3027 45.2773 91.9648 45.4883 92.8203 45.4883C93.6699 45.4883 94.332 45.2773 94.8066 44.8555C95.2812 44.4277 95.5186 43.8916 95.5186 43.2471ZM110.776 45.1982V38.1494C110.396 38.1436 110.114 38.0586 109.933 37.8945C109.751 37.7246 109.66 37.5078 109.66 37.2441C109.66 36.9746 109.751 36.7578 109.933 36.5938C110.12 36.4238 110.431 36.3389 110.864 36.3389L114.635 36.3477C115.221 36.3477 115.792 36.4561 116.349 36.6729C116.911 36.8896 117.362 37.165 117.702 37.499C117.96 37.751 118.227 38.0967 118.502 38.5361C118.783 38.9756 118.994 39.4121 119.135 39.8457C119.275 40.2793 119.346 40.8096 119.346 41.4365V42.2979C119.346 43.0596 119.217 43.7363 118.959 44.3281C118.701 44.9141 118.361 45.3945 117.939 45.7695C117.523 46.1387 117.131 46.4111 116.762 46.5869C116.176 46.8623 115.417 47 114.485 47H110.864C110.431 47 110.12 46.918 109.933 46.7539C109.751 46.584 109.66 46.3643 109.66 46.0947C109.66 45.8311 109.751 45.6143 109.933 45.4443C110.12 45.2744 110.401 45.1924 110.776 45.1982ZM112.578 45.1982H114.494C115.209 45.1982 115.748 45.0957 116.111 44.8906C116.586 44.6211 116.943 44.2783 117.184 43.8623C117.424 43.4463 117.544 42.9072 117.544 42.2451V41.3926C117.544 40.8242 117.436 40.3262 117.219 39.8984C116.879 39.2305 116.495 38.7734 116.067 38.5273C115.646 38.2754 115.115 38.1494 114.477 38.1494H112.578V45.1982ZM130.139 43.9238H122.747C122.935 44.3926 123.266 44.7705 123.74 45.0576C124.221 45.3447 124.868 45.4883 125.683 45.4883C126.351 45.4883 127.238 45.3447 128.346 45.0576C128.803 44.9404 129.119 44.8818 129.295 44.8818C129.535 44.8818 129.737 44.9668 129.901 45.1367C130.065 45.3066 130.147 45.5205 130.147 45.7783C130.147 46.0127 130.06 46.2119 129.884 46.376C129.649 46.5928 129.078 46.8008 128.17 47C127.262 47.1934 126.389 47.29 125.551 47.29C124.109 47.29 122.955 46.8828 122.088 46.0684C121.227 45.2539 120.796 44.252 120.796 43.0625C120.796 41.7969 121.262 40.7686 122.193 39.9775C123.131 39.1807 124.209 38.7822 125.428 38.7822C126.16 38.7822 126.831 38.9111 127.44 39.1689C128.056 39.4268 128.513 39.7051 128.812 40.0039C129.233 40.4375 129.582 40.9736 129.857 41.6123C130.045 42.0576 130.139 42.5732 130.139 43.1592V43.9238ZM128.144 42.1221C127.868 41.6064 127.508 41.2227 127.062 40.9707C126.617 40.7129 126.087 40.584 125.472 40.584C124.862 40.584 124.335 40.7129 123.89 40.9707C123.444 41.2227 123.081 41.6064 122.8 42.1221H128.144ZM136.44 44.8115L138.383 40.8213C137.902 40.8213 137.595 40.7803 137.46 40.6982C137.167 40.5166 137.021 40.2559 137.021 39.916C137.021 39.6523 137.111 39.4385 137.293 39.2744C137.48 39.1045 137.791 39.0195 138.225 39.0195H140.694C141.128 39.0195 141.436 39.1045 141.617 39.2744C141.805 39.4385 141.898 39.6553 141.898 39.9248C141.898 40.1885 141.805 40.4053 141.617 40.5752C141.436 40.7393 141.128 40.8213 140.694 40.8213H140.396L137.381 47H135.5L132.485 40.8213H132.23C131.797 40.8213 131.486 40.7393 131.299 40.5752C131.117 40.4053 131.026 40.1855 131.026 39.916C131.026 39.6523 131.117 39.4385 131.299 39.2744C131.486 39.1045 131.797 39.0195 132.23 39.0195H134.647C135.075 39.0195 135.38 39.1045 135.562 39.2744C135.749 39.4385 135.843 39.6553 135.843 39.9248C135.843 40.2588 135.702 40.5137 135.421 40.6895C135.28 40.7773 134.967 40.8213 134.48 40.8213L136.44 44.8115ZM151.76 43.9238H144.368C144.556 44.3926 144.887 44.7705 145.361 45.0576C145.842 45.3447 146.489 45.4883 147.304 45.4883C147.972 45.4883 148.859 45.3447 149.967 45.0576C150.424 44.9404 150.74 44.8818 150.916 44.8818C151.156 44.8818 151.358 44.9668 151.522 45.1367C151.687 45.3066 151.769 45.5205 151.769 45.7783C151.769 46.0127 151.681 46.2119 151.505 46.376C151.271 46.5928 150.699 46.8008 149.791 47C148.883 47.1934 148.01 47.29 147.172 47.29C145.73 47.29 144.576 46.8828 143.709 46.0684C142.848 45.2539 142.417 44.252 142.417 43.0625C142.417 41.7969 142.883 40.7686 143.814 39.9775C144.752 39.1807 145.83 38.7822 147.049 38.7822C147.781 38.7822 148.452 38.9111 149.062 39.1689C149.677 39.4268 150.134 39.7051 150.433 40.0039C150.854 40.4375 151.203 40.9736 151.479 41.6123C151.666 42.0576 151.76 42.5732 151.76 43.1592V43.9238ZM149.765 42.1221C149.489 41.6064 149.129 41.2227 148.684 40.9707C148.238 40.7129 147.708 40.584 147.093 40.584C146.483 40.584 145.956 40.7129 145.511 40.9707C145.065 41.2227 144.702 41.6064 144.421 42.1221H149.765ZM158.949 35.6006V45.1982H161.111C161.545 45.1982 161.853 45.2832 162.034 45.4531C162.222 45.6172 162.315 45.834 162.315 46.1035C162.315 46.3672 162.222 46.584 162.034 46.7539C161.853 46.918 161.545 47 161.111 47H154.985C154.552 47 154.241 46.918 154.054 46.7539C153.872 46.584 153.781 46.3643 153.781 46.0947C153.781 45.8311 153.872 45.6172 154.054 45.4531C154.241 45.2832 154.552 45.1982 154.985 45.1982H157.147V37.4023H155.697C155.27 37.4023 154.962 37.3203 154.774 37.1562C154.587 36.9863 154.493 36.7666 154.493 36.4971C154.493 36.2334 154.584 36.0195 154.766 35.8555C154.953 35.6855 155.264 35.6006 155.697 35.6006H158.949ZM173.539 43.1592C173.539 43.8506 173.346 44.5215 172.959 45.1719C172.578 45.8164 172.007 46.332 171.245 46.7188C170.489 47.0996 169.698 47.29 168.872 47.29C168.052 47.29 167.267 47.1025 166.517 46.7275C165.767 46.3467 165.195 45.8311 164.803 45.1807C164.41 44.5303 164.214 43.8506 164.214 43.1416C164.214 42.4209 164.413 41.7148 164.812 41.0234C165.21 40.3262 165.781 39.7783 166.525 39.3799C167.275 38.9814 168.058 38.7822 168.872 38.7822C169.692 38.7822 170.48 38.9873 171.236 39.3975C171.998 39.8018 172.572 40.3496 172.959 41.041C173.346 41.7266 173.539 42.4326 173.539 43.1592ZM171.737 43.168C171.737 42.5879 171.529 42.0547 171.113 41.5684C170.545 40.9121 169.798 40.584 168.872 40.584C168.058 40.584 167.378 40.8447 166.833 41.3662C166.288 41.8877 166.016 42.4912 166.016 43.1768C166.016 43.7393 166.291 44.2666 166.842 44.7588C167.393 45.2451 168.069 45.4883 168.872 45.4883C169.681 45.4883 170.36 45.2451 170.911 44.7588C171.462 44.2666 171.737 43.7363 171.737 43.168ZM177.433 46.0068V48.96H178.514C178.947 48.96 179.255 49.042 179.437 49.2061C179.624 49.376 179.718 49.5957 179.718 49.8652C179.718 50.1289 179.624 50.3428 179.437 50.5068C179.255 50.6768 178.947 50.7617 178.514 50.7617H175.323C174.89 50.7617 174.579 50.6768 174.392 50.5068C174.21 50.3428 174.119 50.1289 174.119 49.8652C174.119 49.5957 174.213 49.376 174.4 49.2061C174.588 49.042 174.896 48.96 175.323 48.96H175.631V40.8213H175.323C174.89 40.8213 174.579 40.7393 174.392 40.5752C174.21 40.4053 174.119 40.1855 174.119 39.916C174.119 39.6523 174.21 39.4385 174.392 39.2744C174.579 39.1045 174.89 39.0195 175.323 39.0195H177.433V39.6348C177.854 39.3477 178.291 39.1338 178.742 38.9932C179.193 38.8525 179.656 38.7822 180.131 38.7822C181.361 38.7822 182.41 39.2012 183.277 40.0391C184.145 40.8711 184.578 41.8262 184.578 42.9043C184.578 44.0938 184.065 45.0752 183.04 45.8486C182.185 46.4932 181.221 46.8154 180.148 46.8154C179.686 46.8154 179.229 46.748 178.777 46.6133C178.326 46.4785 177.878 46.2764 177.433 46.0068ZM182.776 42.9131C182.776 42.6611 182.677 42.3418 182.478 41.9551C182.278 41.5625 181.971 41.2373 181.555 40.9795C181.145 40.7158 180.661 40.584 180.104 40.584C179.208 40.584 178.496 40.9209 177.969 41.5947C177.611 42.0576 177.433 42.5029 177.433 42.9307C177.433 43.4111 177.688 43.8799 178.197 44.3369C178.713 44.7881 179.349 45.0137 180.104 45.0137C180.866 45.0137 181.502 44.7881 182.012 44.3369C182.521 43.8857 182.776 43.4111 182.776 42.9131ZM195.002 43.9238H187.61C187.798 44.3926 188.129 44.7705 188.604 45.0576C189.084 45.3447 189.731 45.4883 190.546 45.4883C191.214 45.4883 192.102 45.3447 193.209 45.0576C193.666 44.9404 193.982 44.8818 194.158 44.8818C194.398 44.8818 194.601 44.9668 194.765 45.1367C194.929 45.3066 195.011 45.5205 195.011 45.7783C195.011 46.0127 194.923 46.2119 194.747 46.376C194.513 46.5928 193.941 46.8008 193.033 47C192.125 47.1934 191.252 47.29 190.414 47.29C188.973 47.29 187.818 46.8828 186.951 46.0684C186.09 45.2539 185.659 44.252 185.659 43.0625C185.659 41.7969 186.125 40.7686 187.057 39.9775C187.994 39.1807 189.072 38.7822 190.291 38.7822C191.023 38.7822 191.694 38.9111 192.304 39.1689C192.919 39.4268 193.376 39.7051 193.675 40.0039C194.097 40.4375 194.445 40.9736 194.721 41.6123C194.908 42.0576 195.002 42.5732 195.002 43.1592V43.9238ZM193.007 42.1221C192.731 41.6064 192.371 41.2227 191.926 40.9707C191.48 40.7129 190.95 40.584 190.335 40.584C189.726 40.584 189.198 40.7129 188.753 40.9707C188.308 41.2227 187.944 41.6064 187.663 42.1221H193.007ZM200.917 39.0195V40.1445C201.673 39.5996 202.268 39.2363 202.701 39.0547C203.141 38.873 203.551 38.7822 203.932 38.7822C204.518 38.7822 205.086 38.999 205.637 39.4326C206.012 39.7256 206.199 40.0244 206.199 40.3291C206.199 40.5869 206.108 40.8066 205.927 40.9883C205.751 41.1641 205.537 41.252 205.285 41.252C205.062 41.252 204.828 41.1406 204.582 40.918C204.336 40.6953 204.116 40.584 203.923 40.584C203.671 40.584 203.293 40.7422 202.789 41.0586C202.291 41.375 201.667 41.8496 200.917 42.4824V45.1982H203.483C203.917 45.1982 204.225 45.2832 204.406 45.4531C204.594 45.6172 204.688 45.834 204.688 46.1035C204.688 46.3672 204.594 46.584 204.406 46.7539C204.225 46.918 203.917 47 203.483 47H198.043C197.609 47 197.299 46.918 197.111 46.7539C196.93 46.584 196.839 46.3643 196.839 46.0947C196.839 45.8311 196.93 45.6172 197.111 45.4531C197.299 45.2832 197.609 45.1982 198.043 45.1982H199.115V40.8213H198.465C198.031 40.8213 197.721 40.7393 197.533 40.5752C197.352 40.4053 197.261 40.1855 197.261 39.916C197.261 39.6523 197.352 39.4385 197.533 39.2744C197.721 39.1045 198.031 39.0195 198.465 39.0195H200.917Z" fill="#61DBFB"/>
</svg>
